<svg width="172" height="41" viewBox="0 0 172 41" fill="none" xmlns="http://www.w3.org/2000/svg">
<g clip-path="url(#clip0_252_370)">
<path d="M0 17.1755L1.22194 15.7146L6.31452 16.5031" fill="#F37C11"/>
<path d="M6.31452 16.5031L5.57384 19.22L0 17.1755" fill="#F37C11"/>
<path d="M0 17.1755L0.795288 18.3599L5.57384 19.22" fill="#E4591A"/>
<path d="M6.31441 16.5031L12.687 15.8853L5.57373 19.22" fill="#FFB43F"/>
<path d="M5.57373 19.22L13.1546 19.5408L12.6869 15.8853" fill="#FE9900"/>
<path d="M13.1546 19.5408L22.0359 19.7252L12.687 15.8853" fill="#F77A0B"/>
<path d="M22.0359 19.7252L21.1894 15.9433L12.687 15.8853" fill="#F16C05"/>
<path d="M22.0359 19.7252L28.8624 13.9227L21.1895 15.9433" fill="#E55000"/>
<path d="M28.8624 13.9227L31.1186 17.5066L22.0359 19.7252" fill="#B83C28"/>
<path d="M31.1187 17.5066L35.9894 14.991L28.8625 13.9227" fill="#592B1C"/>
<path d="M28.8625 13.9227L36.5594 9.67657L35.9894 14.991" fill="#E44F11"/>
<path d="M35.9893 14.991L41.116 17.1755L43.4438 12.3867" fill="#F87A09"/>
<path d="M41.116 17.1755L45.1129 17.7114L43.4711 12.3321" fill="#F16C00"/>
<path d="M35.9893 14.991L43.4438 12.3867L36.5593 9.67657" fill="#EF6D00"/>
<path d="M36.5593 9.67656L41.116 3.65558L43.4439 12.3867" fill="#E45100"/>
<path d="M41.116 3.6556L48.3725 2.16742L43.4438 12.3867" fill="#B43D2B"/>
<path d="M43.4438 12.3867C43.4438 12.3867 54.9124 6.68998 54.9977 6.63196C55.083 6.57393 48.376 2.16742 48.376 2.16742" fill="#F87F13"/>
<path d="M48.3726 2.16743L59.9879 1.42334L54.9977 6.63196" fill="#FE9800"/>
<path d="M43.4438 12.3867L53.8065 14.7794L45.1129 17.7114" fill="#E45100"/>
<path d="M43.9182 23.6641L45.1129 17.7114L49.6047 20.9471" fill="#EF7E16"/>
<path d="M53.8066 14.7794L54.9979 6.63196L62.5036 9.26358" fill="#FD9800"/>
<path d="M62.5036 9.26358L59.988 1.42334L72.7024 5.57386" fill="#F87F13"/>
<path d="M51.9564 24.7597L43.9182 23.6641L49.6047 20.9471" fill="#EF6D09"/>
<path d="M62.5036 9.26355L53.8066 14.7794L60.8687 16.9673" fill="#F87A05"/>
<path d="M55.38 22.8313L49.6047 20.9471L51.9565 24.7597" fill="#F56F1A"/>
<path d="M56.2436 26.6336L51.9565 24.7597L55.38 22.8312" fill="#E45105"/>
<path d="M56.2437 26.6336L55.3801 22.8312L59.0562 24.4491" fill="#B43D28"/>
<path d="M43.4609 41.0034L47.3008 40.8601L47.3725 37.4878" fill="#592A26"/>
<path d="M47.3725 37.4878L43.4609 41.0034L44.1368 36.3273" fill="#5A2B1D"/>
<path d="M50.6287 31.1732L44.1367 36.3272L47.3725 37.4877" fill="#FF930D"/>
<path d="M47.3726 37.4877L53.0659 33.5796L50.6288 31.1732" fill="#EF7E16"/>
<path d="M53.066 33.5796L50.6289 31.1732L56.2437 26.6336" fill="#E45105"/>
<path d="M59.4487 29.5246L53.0659 33.5796L56.2437 26.6336" fill="#B53F22"/>
<path d="M66.8213 24.3502L59.4487 29.5247L56.2437 26.6336" fill="#592A26"/>
<path d="M66.8213 24.3502L56.2437 26.6336L59.0562 24.3502" fill="#EF6D00"/>
<path d="M74.6649 21.6878L66.8213 24.3502L68.9341 17.551" fill="#EF6D00"/>
<path d="M66.8213 24.3502H59.0562L68.9341 17.551" fill="#FEB540"/>
<path d="M78.3069 16.4929L74.6649 21.6878L68.9341 17.551" fill="#E05400"/>
<path d="M75.9039 12.2161L78.3069 16.4929L68.9341 17.551" fill="#5A2B1D"/>
<path d="M72.7023 5.57385L75.9039 12.216L68.9341 17.551" fill="#B43D2B"/>
<path d="M72.7024 5.57385L80.3105 8.20547L75.904 12.216" fill="#EF6D00"/>
<path d="M60.8687 16.9673L62.5036 9.26355L68.9342 17.5509" fill="#EF6D00"/>
<path d="M72.7022 5.57385L68.934 17.551L62.5034 9.26358" fill="#E44F11"/>
<path d="M68.9341 17.551L60.8686 16.9673L59.0562 24.3502" fill="#FF930D"/>
<path d="M72.7024 5.57385L80.6792 2.61456L78.4196 5.08576" fill="#FAB748"/>
<path d="M78.4194 5.08576L80.679 2.61456L82.9488 4.58742" fill="#FFB93F"/>
<path d="M80.3105 8.20545L82.949 4.5874L85.1847 8.00407" fill="#E44F0D"/>
<path d="M78.4196 5.08575L72.7024 5.57385L80.3105 8.20547" fill="#FD9800"/>
<path d="M78.4194 5.08574L80.3104 8.20545L82.9488 4.5874" fill="#FD9800"/>
<path d="M82.9488 4.58741L80.679 2.61455L83.7099 0" fill="#572B20"/>
<path d="M82.949 4.58741L83.7101 0L85.2836 3.00025" fill="#B03D2A"/>
<path d="M85.2836 3.00024L82.949 4.58741L85.1847 8.00407" fill="#F77B09"/>
<path d="M88.533 4.28021L85.2836 3.00024L85.1846 8.00066" fill="#FE9800"/>
<path d="M89.0006 6.48859L88.533 4.28021L85.1846 8.00407" fill="#FFB53B"/>
<path d="M89.0006 10.0827V6.48859L85.1846 8.00407" fill="#FFB53B"/>
<path d="M85.9491 11.4344L89.0006 10.0828L85.1846 8.00409" fill="#FF9700"/>
<path d="M85.9492 11.4344L88.062 12.1034L89.0007 10.0828" fill="#F0CC9A"/>
<path d="M89.0005 10.0827L90.5365 8.6048L89.0005 6.48859" fill="#12110C"/>
<path d="M81.092 11.0931L85.9491 11.4344L85.1845 8.00409" fill="#FF7800"/>
<path d="M81.0956 11.1068C81.2082 11.1068 85.1915 8.01434 85.1915 8.01434L80.3174 8.21914" fill="#E96E00"/>
<path d="M78.3067 16.4928C78.3921 16.2641 81.1807 11.1204 81.0954 11.0931C81.01 11.0658 75.9038 12.216 75.9038 12.216" fill="#E87005"/>
<path d="M75.9038 12.216L80.3103 8.20544L81.092 11.0931" fill="#F87A05"/>
<path d="M49.6049 20.9505L53.8066 14.7828L45.113 17.7148" fill="#D3762A"/>
<path d="M54.9978 6.63197L59.988 1.42334L62.5035 9.26358" fill="#F7B746"/>
<path d="M43.4438 12.3867C43.4438 12.3867 53.7246 14.8374 53.8099 14.776C53.8952 14.7145 54.9977 6.62854 54.9977 6.62854" fill="#B73D28"/>
</g>
<path d="M100.339 17.8027C99.267 17.8027 98.2916 17.5832 97.413 17.1443C96.5344 16.7053 95.9089 16.1273 95.5366 15.4104L97.0109 14.1813C97.3683 14.7665 97.8598 15.2421 98.4852 15.6079C99.1256 15.9591 99.7883 16.1346 100.473 16.1346C101.501 16.1346 102.327 15.8786 102.953 15.3665C103.593 14.8397 103.913 14.1593 103.913 13.3253C103.913 12.7839 103.705 12.2864 103.288 11.8328C102.871 11.3646 102.201 10.889 101.277 10.4062C98.8947 9.16243 97.7034 7.77238 97.7034 6.236C97.7034 5.40197 97.9193 4.66305 98.3512 4.01924C98.7831 3.37542 99.3936 2.87793 100.183 2.52676C100.987 2.17559 101.91 2 102.953 2C103.98 2 104.896 2.21948 105.7 2.65845C106.519 3.09741 107.056 3.66075 107.309 4.34846L105.79 5.31418C105.522 4.80205 105.127 4.39967 104.606 4.10703C104.099 3.81439 103.534 3.66806 102.908 3.66806C101.97 3.66806 101.21 3.89486 100.63 4.34846C100.064 4.78742 99.7808 5.37271 99.7808 6.10432C99.7808 6.55791 99.9967 6.98224 100.429 7.37731C100.86 7.77238 101.657 8.2845 102.819 8.91369C104.948 10.0404 106.013 11.4304 106.013 13.0838C106.013 14.0203 105.775 14.847 105.298 15.564C104.837 16.2663 104.174 16.815 103.31 17.2101C102.461 17.6052 101.471 17.8027 100.339 17.8027Z" fill="black"/>
<path d="M110.688 2.21948H115.156C116.645 2.21948 117.792 2.54139 118.596 3.1852C119.415 3.81439 119.824 4.70695 119.824 5.86288C119.824 7.07735 119.571 8.13818 119.065 9.04537C118.559 9.95257 117.836 10.6476 116.898 11.1305C115.96 11.6133 114.858 11.8547 113.592 11.8547H111.023L109.996 17.5832H107.941L110.688 2.21948ZM114.017 10.1867C115.134 10.1867 116.042 9.82088 116.742 9.08927C117.442 8.34303 117.792 7.38463 117.792 6.21406C117.792 5.45318 117.553 4.87521 117.077 4.48015C116.6 4.08508 115.9 3.88755 114.977 3.88755H112.453L111.314 10.1867H114.017Z" fill="black"/>
<path d="M123.493 2.21948H132.875L132.585 3.88755H125.258L124.409 8.67226H130.954L130.641 10.3403H124.096L123.091 15.9152H130.418L130.128 17.5832H120.746L123.493 2.21948Z" fill="black"/>
<path d="M135.818 2.21948H145.2L144.91 3.88755H137.583L136.734 8.67226H143.279L142.967 10.3403H136.422L135.416 15.9152H142.743L142.453 17.5832H133.071L135.818 2.21948Z" fill="black"/>
<path d="M148.143 2.21948H153.237C154.875 2.21948 156.103 2.65845 156.922 3.53637C157.756 4.39967 158.173 5.6873 158.173 7.39926C158.173 9.55018 157.846 11.3865 157.19 12.9083C156.535 14.43 155.582 15.5933 154.331 16.398C153.095 17.1882 151.606 17.5832 149.863 17.5832H145.396L148.143 2.21948ZM150.377 15.9152C151.509 15.9152 152.507 15.564 153.371 14.8617C154.234 14.1447 154.904 13.1497 155.381 11.8767C155.872 10.6037 156.118 9.14048 156.118 7.48705C156.118 6.27258 155.835 5.37271 155.269 4.78742C154.718 4.1875 153.869 3.88755 152.723 3.88755H149.908L147.741 15.9152H150.377Z" fill="black"/>
<path d="M162.847 11.4816L159.519 2.21948H161.753L164.165 9.55018L169.213 2.21948H171.537L164.925 11.4816L163.83 17.5832H161.753L162.847 11.4816Z" fill="black"/>
<path d="M100.676 39C99.7531 39 98.9043 38.8171 98.1299 38.4513C97.3704 38.0855 96.7599 37.5807 96.2982 36.9369L96.9237 36.4101C97.3109 36.9661 97.8321 37.4124 98.4873 37.749C99.1426 38.0855 99.835 38.2538 100.565 38.2538C101.324 38.2538 102.024 38.1074 102.664 37.8148C103.32 37.5075 103.841 37.0759 104.228 36.5199C104.615 35.9638 104.809 35.3346 104.809 34.6323C104.809 34.0178 104.66 33.4837 104.362 33.0301C104.079 32.5765 103.744 32.2107 103.357 31.9327C102.97 31.64 102.493 31.3328 101.927 31.0109C101.123 30.5573 100.49 30.1695 100.029 29.8476C99.5819 29.5111 99.2096 29.1087 98.9117 28.6404C98.6139 28.1722 98.465 27.6162 98.465 26.9724C98.465 26.2115 98.6735 25.5457 99.0904 24.9751C99.5074 24.4044 100.058 23.9655 100.743 23.6582C101.443 23.3509 102.203 23.1973 103.022 23.1973C104.02 23.1973 104.891 23.4021 105.635 23.8118C106.38 24.2215 106.879 24.7702 107.132 25.458L106.44 25.875C106.201 25.2897 105.784 24.8215 105.189 24.4703C104.593 24.1191 103.908 23.9435 103.134 23.9435C102.478 23.9435 101.86 24.0679 101.28 24.3166C100.699 24.5654 100.23 24.9166 99.8723 25.3702C99.5149 25.8238 99.3361 26.3432 99.3361 26.9285C99.3361 27.4113 99.4627 27.843 99.7159 28.2234C99.9839 28.6039 100.341 28.955 100.788 29.2769C101.25 29.5989 101.905 30.0012 102.754 30.4841C103.603 30.9816 104.303 31.5449 104.854 32.1741C105.419 32.7887 105.702 33.6227 105.702 34.6762C105.702 35.5541 105.479 36.3223 105.032 36.9808C104.6 37.6392 103.997 38.144 103.223 38.4952C102.463 38.8317 101.615 39 100.676 39Z" fill="black"/>
<path d="M116.863 23.4168H117.712L114.964 38.7805H114.115L116.863 23.4168Z" fill="black"/>
<path d="M130.949 24.185H125.967L126.101 23.4168H136.913L136.779 24.185H131.798L129.184 38.7805H128.335L130.949 24.185Z" fill="black"/>
<path d="M144.896 23.4168H153.228L153.094 24.185H145.611L144.516 30.2866H151.217L151.083 31.0547H144.382L143.131 38.0123H150.614L150.48 38.7805H142.148L144.896 23.4168Z" fill="black"/>
<path d="M163.328 39C162.405 39 161.556 38.8171 160.781 38.4513C160.022 38.0855 159.411 37.5807 158.95 36.9369L159.575 36.4101C159.962 36.9661 160.484 37.4124 161.139 37.749C161.794 38.0855 162.487 38.2538 163.216 38.2538C163.976 38.2538 164.676 38.1074 165.316 37.8148C165.971 37.5075 166.493 37.0759 166.88 36.5199C167.267 35.9638 167.46 35.3346 167.46 34.6323C167.46 34.0178 167.312 33.4837 167.014 33.0301C166.731 32.5765 166.396 32.2107 166.009 31.9327C165.621 31.64 165.145 31.3328 164.579 31.0109C163.775 30.5573 163.142 30.1695 162.68 29.8476C162.233 29.5111 161.861 29.1087 161.563 28.6404C161.265 28.1722 161.117 27.6162 161.117 26.9724C161.117 26.2115 161.325 25.5457 161.742 24.9751C162.159 24.4044 162.71 23.9655 163.395 23.6582C164.095 23.3509 164.854 23.1973 165.673 23.1973C166.671 23.1973 167.542 23.4021 168.287 23.8118C169.032 24.2215 169.53 24.7702 169.784 25.458L169.091 25.875C168.853 25.2897 168.436 24.8215 167.84 24.4703C167.245 24.1191 166.56 23.9435 165.785 23.9435C165.13 23.9435 164.512 24.0679 163.931 24.3166C163.35 24.5654 162.881 24.9166 162.524 25.3702C162.166 25.8238 161.988 26.3432 161.988 26.9285C161.988 27.4113 162.114 27.843 162.367 28.2234C162.636 28.6039 162.993 28.955 163.44 29.2769C163.901 29.5989 164.557 30.0012 165.405 30.4841C166.254 30.9816 166.954 31.5449 167.505 32.1741C168.071 32.7887 168.354 33.6227 168.354 34.6762C168.354 35.5541 168.131 36.3223 167.684 36.9808C167.252 37.6392 166.649 38.144 165.874 38.4952C165.115 38.8317 164.266 39 163.328 39Z" fill="black"/>
<defs>
<clipPath id="clip0_252_370">
<rect width="90.5365" height="41" fill="white"/>
</clipPath>
</defs>
</svg>
