<svg width="91" height="41" viewBox="0 0 91 41" fill="none" xmlns="http://www.w3.org/2000/svg">
<path d="M0 17.1741L1.21876 15.7133L6.29805 16.5017" fill="#F37C11"/>
<path d="M6.29805 16.5017L5.55931 19.2184L0 17.1741" fill="#F37C11"/>
<path d="M0 17.1741L0.793214 18.3584L5.5593 19.2184" fill="#E4591A"/>
<path d="M6.29806 16.5017L12.654 15.884L5.55931 19.2184" fill="#FFB43F"/>
<path d="M5.55931 19.2184L13.1204 19.5393L12.654 15.884" fill="#FE9900"/>
<path d="M13.1204 19.5393L21.9785 19.7236L12.654 15.884" fill="#F77A0B"/>
<path d="M21.9785 19.7236L21.1342 15.942L12.654 15.884" fill="#F16C05"/>
<path d="M21.9785 19.7236L28.7872 13.9215L21.1342 15.942" fill="#E55000"/>
<path d="M28.7872 13.9215L31.0375 17.5051L21.9785 19.7236" fill="#B83C28"/>
<path d="M31.0375 17.5051L35.8955 14.9898L28.7872 13.9215" fill="#592B1C"/>
<path d="M28.7872 13.9215L36.464 9.67578L35.8955 14.9898" fill="#E44F11"/>
<path d="M35.8955 14.9898L41.0088 17.1741L43.3306 12.3857" fill="#F87A09"/>
<path d="M41.0088 17.1741L44.9953 17.7099L43.3578 12.3311" fill="#F16C00"/>
<path d="M35.8955 14.9898L43.3306 12.3857L36.464 9.67578" fill="#EF6D00"/>
<path d="M36.464 9.67575L41.0088 3.65527L43.3306 12.3856" fill="#E45100"/>
<path d="M41.0088 3.65529L48.2465 2.16724L43.3306 12.3857" fill="#CE4900"/>
<path d="M43.3306 12.3857C43.3306 12.3857 54.7692 6.68942 54.8543 6.6314C54.9394 6.57338 48.2499 2.16724 48.2499 2.16724" fill="#B73D28"/>
<path d="M48.2465 2.16724L59.8315 1.42322L54.8543 6.63141" fill="#FE9800"/>
<path d="M43.3306 12.3857L53.6662 14.7782L44.9953 17.7099" fill="#E45100"/>
<path d="M43.8038 23.6621L44.9953 17.7099L49.4754 20.9454" fill="#EF7E16"/>
<path d="M53.6662 14.7782L54.8543 6.63141L62.3405 9.26281" fill="#FD9800"/>
<path d="M62.3405 9.26281L59.8315 1.42322L72.5127 5.57339" fill="#F87F13"/>
<path d="M51.821 24.7577L43.8038 23.6621L49.4754 20.9454" fill="#EF6D09"/>
<path d="M62.3405 9.26282L53.6662 14.7782L60.7098 16.9659" fill="#F87A05"/>
<path d="M55.2356 22.8293L49.4754 20.9454L51.821 24.7577" fill="#F56F1A"/>
<path d="M56.0969 26.6314L51.821 24.7577L55.2356 22.8293" fill="#E45105"/>
<path d="M56.0969 26.6314L55.2356 22.8293L58.9021 24.4471" fill="#B43D28"/>
<path d="M43.3476 41L47.1775 40.8566L47.249 37.4846" fill="#592A26"/>
<path d="M47.249 37.4846L43.3476 41L44.0217 36.3242" fill="#5A2B1D"/>
<path d="M50.4967 31.1707L44.0217 36.3242L47.249 37.4847" fill="#FF930D"/>
<path d="M47.249 37.4847L52.9275 33.5768L50.4968 31.1707" fill="#EF7E16"/>
<path d="M52.9274 33.5768L50.4967 31.1707L56.0969 26.6314" fill="#E45105"/>
<path d="M59.2936 29.5222L52.9275 33.5768L56.0969 26.6314" fill="#B53F22"/>
<path d="M66.647 24.3481L59.2936 29.5222L56.0969 26.6314" fill="#592A26"/>
<path d="M66.647 24.3481L56.0969 26.6314L58.9021 24.3481" fill="#EF6D00"/>
<path d="M74.4702 21.686L66.647 24.3481L68.7543 17.5495" fill="#EF6D00"/>
<path d="M66.647 24.3481H58.9021L68.7543 17.5495" fill="#FEB540"/>
<path d="M78.1026 16.4915L74.4702 21.686L68.7543 17.5495" fill="#E05400"/>
<path d="M75.706 12.215L78.1026 16.4915L68.7543 17.5495" fill="#5A2B1D"/>
<path d="M72.5127 5.57336L75.706 12.215L68.7543 17.5495" fill="#B43D2B"/>
<path d="M72.5127 5.57336L80.101 8.20477L75.706 12.215" fill="#EF6D00"/>
<path d="M72.5127 5.57336L68.7543 17.5495L62.3405 9.26278" fill="#E44F11"/>
<path d="M68.7543 17.5495L60.7098 16.9659L58.9021 24.3481" fill="#FF930D"/>
<path d="M60.7098 16.9659L62.3405 9.26282L68.7543 17.5495" fill="#EF6D00"/>
<path d="M72.5127 5.57336L80.4687 2.61432L78.215 5.08531" fill="#FAB748"/>
<path d="M78.215 5.08531L80.4686 2.61432L82.7325 4.58701" fill="#FFB93F"/>
<path d="M80.101 8.20478L82.7326 4.58704L84.9624 8.00342" fill="#E44F0D"/>
<path d="M78.215 5.08533L72.5127 5.57338L80.101 8.20478" fill="#FD9800"/>
<path d="M78.215 5.08533L80.101 8.20478L82.7325 4.58704" fill="#FD9800"/>
<path d="M82.7325 4.58703L80.4687 2.61433L83.4917 0" fill="#572B20"/>
<path d="M82.7325 4.58703L83.4917 0L85.0611 3" fill="#B03D2A"/>
<path d="M85.0611 3L82.7325 4.58703L84.9624 8.00341" fill="#F77B09"/>
<path d="M88.3021 4.27986L85.0611 3L84.9624 8" fill="#FE9800"/>
<path d="M88.7685 6.48804L88.3021 4.27985L84.9624 8.0034" fill="#FFB53B"/>
<path d="M88.7685 10.0819V6.48804L84.9624 8.0034" fill="#FFB53B"/>
<path d="M85.725 11.4335L88.7685 10.0819L84.9624 8.00342" fill="#FF9700"/>
<path d="M85.725 11.4334L87.8323 12.1024L88.7685 10.0819" fill="#F0CC9A"/>
<path d="M88.7685 10.0819L90.3004 8.60408L88.7685 6.48804" fill="#12110C"/>
<path d="M80.8806 11.0922L85.725 11.4335L84.9624 8.00342" fill="#FF7800"/>
<path d="M80.884 11.1058C80.9963 11.1058 84.9692 8.01367 84.9692 8.01367L80.1078 8.21845" fill="#E96E00"/>
<path d="M78.1026 16.4915C78.1877 16.2628 80.9691 11.1195 80.884 11.0922C80.7989 11.0648 75.706 12.215 75.706 12.215" fill="#E87005"/>
<path d="M75.706 12.215L80.101 8.20477L80.8806 11.0921" fill="#F87A05"/>
<path d="M49.4754 20.9488L53.6662 14.7816L44.9953 17.7133" fill="#D3762A"/>
<path d="M54.8543 6.63141L59.8315 1.42322L62.3405 9.26281" fill="#F7B746"/>
<path d="M43.3306 12.3857C43.3306 12.3857 53.5845 14.8362 53.6696 14.7747C53.7547 14.7133 54.8543 6.62799 54.8543 6.62799" fill="#CE4900"/>
</svg>
